<svg width="34" height="34" viewBox="0 0 34 34" fill="none" xmlns="http://www.w3.org/2000/svg">
<path d="M2.33333 10.8454C1.97971 10.8454 1.64057 10.9751 1.39052 11.2059C1.14048 11.4367 1 11.7498 1 12.0762V28.6916C1 31.0177 3.14667 32.9993 5.66667 32.9993H28.3333C30.8533 32.9993 33 31.1139 33 28.7877V12.0762C33 11.7498 32.8595 11.4367 32.6095 11.2059C32.3594 10.9751 32.0203 10.8454 31.6667 10.8454H2.33333ZM9 10.8454V8.38388C9 6.42536 9.84286 4.54706 11.3431 3.16217C12.8434 1.77729 14.8783 0.999268 17 0.999268C19.1217 0.999268 21.1566 1.77729 22.6569 3.16217C24.1571 4.54706 25 6.42536 25 8.38388V10.8454" fill="#F3F3F3"/>
<path d="M9 10.8454V8.38388C9 6.42536 9.84286 4.54706 11.3431 3.16217C12.8434 1.77729 14.8783 0.999268 17 0.999268V0.999268C19.1217 0.999268 21.1566 1.77729 22.6569 3.16217C24.1571 4.54706 25 6.42536 25 8.38388V10.8454M2.33333 10.8454C1.97971 10.8454 1.64057 10.9751 1.39052 11.2059C1.14048 11.4367 1 11.7498 1 12.0762V28.6916C1 31.0177 3.14667 32.9993 5.66667 32.9993H28.3333C30.8533 32.9993 33 31.1139 33 28.7877V12.0762C33 11.7498 32.8595 11.4367 32.6095 11.2059C32.3594 10.9751 32.0203 10.8454 31.6667 10.8454H2.33333Z" stroke="#FC6701" stroke-width="2" stroke-linecap="round" stroke-linejoin="round"/>
</svg>
