<svg viewBox="0 0 1413 479" fill="none" xmlns="http://www.w3.org/2000/svg">
<path d="M0 3.14014H140.64C144.44 3.14014 148.06 3.24014 151.48 3.42014C154.9 3.61014 159.7 4.23014 165.89 5.28014C172.07 6.33014 177.68 7.85015 182.72 9.84015C187.76 11.8401 193.13 14.7401 198.84 18.5401C204.55 22.3501 209.35 26.8601 213.25 32.0901C217.15 37.3301 220.38 44.0701 222.95 52.3501C225.52 60.6301 226.8 69.8502 226.8 80.0302C226.8 90.2102 225.61 99.4801 223.23 107.84C220.85 116.21 217.76 123.2 213.96 128.81C210.15 134.43 205.59 139.37 200.27 143.64C194.94 147.92 189.71 151.25 184.58 153.63C179.44 156.01 174.07 157.91 168.46 159.34C162.85 160.77 158.05 161.72 154.05 162.2C150.06 162.68 146.35 162.91 142.92 162.91H66.47V203.42H0V3.14014V3.14014ZM138.65 103.84C156.15 103.84 164.9 96.6101 164.9 82.1501C164.9 78.9201 164.47 76.1601 163.62 73.8801C162.77 71.6001 161.48 69.7501 159.77 68.3201C158.06 66.8901 156.35 65.7102 154.63 64.7502C152.92 63.8002 150.87 63.1801 148.5 62.9001C146.12 62.6101 144.17 62.3702 142.65 62.1902C141.13 62.0002 139.41 61.9102 137.51 61.9102H66.47V103.85H138.65V103.84Z" fill="#FD6701"/>
<path d="M369.16 0C387.23 0 403.2 1 417.09 3C430.97 5 443.81 8.37 455.6 13.13C467.39 17.88 477.04 24.11 484.56 31.81C492.07 39.51 497.92 49.21 502.11 60.91C506.29 72.61 508.39 86.35 508.39 102.13C508.39 117.73 506.54 131.23 502.83 142.64C499.12 154.05 493.79 163.71 486.85 171.59C479.91 179.48 470.78 185.86 459.46 190.7C448.14 195.55 435.35 199.02 421.09 201.11C406.83 203.2 390.18 204.25 371.16 204.25C323.99 204.25 289.71 195.65 268.32 178.43C246.92 161.22 236.23 134.55 236.23 98.41C236.23 64.94 247.16 40.17 269.04 24.09C290.89 8.04001 324.27 0 369.16 0ZM371.72 151.77C391.88 151.77 407.47 147.68 418.51 139.5C429.54 131.32 435.06 118.87 435.06 102.13C435.06 85.96 429.26 73.65 417.66 65.19C406.06 56.73 390.46 52.49 370.87 52.49C360.6 52.49 351.56 53.59 343.77 55.77C335.97 57.96 329.55 61.24 324.51 65.61C319.47 69.99 315.71 75.22 313.24 81.3C310.77 87.39 309.53 94.33 309.53 102.12C309.53 117.15 314.76 129.18 325.22 138.21C335.68 147.25 351.18 151.77 371.72 151.77Z" fill="#FD6701"/>
<path d="M587.97 136.93H733.18V203.4H521.5V3.14014H587.97V136.93Z" fill="#FD6701"/>
<path d="M857.278 3.14014H935.728L838.728 144.64V203.41H772.538V144.64L675.828 3.14014H754.278L805.628 72.1801L857.278 3.14014Z" fill="#FD6701"/>
<path d="M1073.23 3.7002L1163.09 203.4H1086.06L1070.94 169.73H971.951L956.831 203.4H880.371L969.951 3.7002H1073.23ZM995.641 112.11H1047.28L1021.32 59.6202L995.641 112.11Z" fill="#FD6701"/>
<path d="M1412.15 3.14014L1302.89 104.13L1412.15 203.41H1322L1260.38 143.5L1238.98 163.19V203.41H1172.51V3.14014H1238.98V82.4501L1322 3.14014H1412.15Z" fill="#FD6701"/>
<path d="M123.14 279.04C141.02 279.04 156.33 279.47 169.07 280.33C181.81 281.18 193.13 282.75 203.02 285.04C212.91 287.32 220.85 290.13 226.84 293.45C232.83 296.78 237.77 301.3 241.67 307C245.57 312.71 248.28 319.03 249.8 325.97C251.32 332.91 252.08 341.42 252.08 351.5H181.33C181.33 348.46 180.8 346.08 179.76 344.37C178.71 342.66 176.38 340.99 172.77 339.38C169.15 337.77 163.45 336.62 155.65 335.96C147.85 335.29 137.58 334.96 124.84 334.96C107.91 334.96 95.5502 335.34 87.7502 336.1C79.9502 336.86 75.0102 337.81 72.9202 338.95C70.8202 340.09 69.7802 342.09 69.7802 344.94C69.9702 347.42 72.5801 349.08 77.6201 349.94C82.6601 350.8 97.8301 352.27 123.12 354.36C123.5 354.36 123.78 354.45 123.98 354.64C174.19 358.63 206.04 362.25 219.55 365.48C237.24 369.67 248.65 376.8 253.78 386.88C257.2 393.73 258.92 403.62 258.92 416.55C258.92 425.68 258.3 433.2 257.07 439.09C255.83 444.99 253.36 450.41 249.65 455.35C245.94 460.3 241.14 464.15 235.24 466.91C229.34 469.67 221.16 472 210.71 473.9C200.25 475.8 188.31 477.09 174.91 477.75C161.5 478.42 144.81 478.75 124.84 478.75C111.15 478.75 99.3102 478.56 89.3202 478.18C79.3402 477.8 70.0102 477.14 61.3602 476.19C52.7002 475.24 45.5302 474 39.8202 472.48C34.1102 470.96 28.9802 468.87 24.4102 466.21C19.8502 463.55 16.2802 460.65 13.7102 457.51C11.1402 454.38 9.00016 450.34 7.29016 445.39C5.58016 440.45 4.44016 435.21 3.87016 429.7C3.30016 424.18 3.01016 417.63 3.01016 410.02H71.7602C71.7602 413.25 72.2802 415.73 73.3302 417.43C74.3702 419.14 76.9002 420.57 80.8902 421.71C84.8802 422.85 90.4502 423.61 97.5802 423.99C104.71 424.37 114.84 424.56 127.96 424.56C129.48 424.56 131.76 424.56 134.81 424.56C156.49 424.56 169.66 424.18 174.32 423.42C178.98 422.66 181.31 420.19 181.31 416.01C181.31 413.54 179.69 411.92 176.46 411.16C173.22 410.4 164.29 409.55 149.64 408.59C138.99 407.83 130.14 407.16 123.11 406.6C111.89 405.65 103.28 404.89 97.2902 404.32C91.3002 403.75 83.8802 402.94 75.0402 401.89C66.2002 400.85 59.4901 399.8 54.9301 398.76C50.3701 397.71 44.9502 396.38 38.6702 394.76C32.3902 393.15 27.6902 391.29 24.5502 389.2C21.4102 387.11 17.9902 384.64 14.2802 381.79C10.5702 378.93 7.91016 375.71 6.29016 372.09C4.67016 368.48 3.25016 364.34 2.01016 359.68C0.770162 355.03 0.160156 349.94 0.160156 344.42C0.160156 337.76 0.630164 331.77 1.59016 326.45C2.54016 321.13 3.87015 316.37 5.58015 312.19C7.29015 308.01 9.67016 304.3 12.7102 301.06C15.7502 297.83 18.9902 295.02 22.4102 292.64C25.8302 290.27 30.2601 288.27 35.6801 286.65C41.1001 285.04 46.5202 283.75 51.9402 282.8C57.3602 281.85 64.0602 281.09 72.0502 280.52C80.0402 279.95 87.8801 279.57 95.5901 279.38C103.31 279.14 112.49 279.04 123.14 279.04Z" fill="#FD6701"/>
<path d="M529.951 478.74H439.231L341.091 358.07V478.74H274.621V278.47H367.341L463.771 397.15V278.47H529.961V478.74H529.951Z" fill="#FD6701"/>
<path d="M788.409 278.47L679.15 379.46L788.409 478.74H698.26L636.64 418.83L615.24 438.52V478.74H548.77V278.47H615.24V357.78L698.26 278.47H788.409Z" fill="#FD6701"/>
<path d="M804.102 278.47H951.312C955.112 278.47 958.731 278.57 962.151 278.75C965.571 278.94 970.372 279.56 976.562 280.61C982.742 281.66 988.351 283.08 993.391 284.89C998.431 286.7 1003.8 289.45 1009.51 293.16C1015.22 296.87 1020.02 301.25 1023.92 306.28C1027.82 311.32 1031.05 317.74 1033.62 325.54C1036.19 333.34 1037.47 342.19 1037.47 352.07C1037.47 383.64 1025.2 406.18 1000.67 419.68L1041.75 478.73L965.011 478.45L930.781 431.38H870.572V478.74H804.102V278.47ZM945.031 372.9C961.581 372.9 969.852 366.62 969.852 354.07C969.852 342.66 961.191 336.95 943.891 336.95H870.572V372.9H945.031Z" fill="#FD6701"/>
<path d="M1167.55 279.04C1185.43 279.04 1200.74 279.47 1213.48 280.33C1226.22 281.18 1237.54 282.75 1247.43 285.04C1257.32 287.32 1265.26 290.13 1271.25 293.45C1277.24 296.78 1282.18 301.3 1286.08 307C1289.98 312.71 1292.69 319.03 1294.21 325.97C1295.73 332.91 1296.49 341.42 1296.49 351.5H1225.74C1225.74 348.46 1225.21 346.08 1224.17 344.37C1223.12 342.66 1220.79 340.99 1217.18 339.38C1213.56 337.77 1207.86 336.62 1200.06 335.96C1192.26 335.29 1181.99 334.96 1169.25 334.96C1152.32 334.96 1139.96 335.34 1132.16 336.1C1124.36 336.86 1119.42 337.81 1117.33 338.95C1115.23 340.09 1114.19 342.09 1114.19 344.94C1114.38 347.42 1116.99 349.08 1122.03 349.94C1127.07 350.8 1142.24 352.27 1167.53 354.36C1167.91 354.36 1168.19 354.45 1168.39 354.64C1218.6 358.63 1250.45 362.25 1263.96 365.48C1281.65 369.67 1293.06 376.8 1298.19 386.88C1301.61 393.73 1303.33 403.62 1303.33 416.55C1303.33 425.68 1302.71 433.2 1301.48 439.09C1300.24 444.99 1297.77 450.41 1294.06 455.35C1290.35 460.3 1285.55 464.15 1279.65 466.91C1273.75 469.67 1265.57 472 1255.12 473.9C1244.66 475.8 1232.72 477.09 1219.32 477.75C1205.91 478.42 1189.22 478.75 1169.25 478.75C1155.56 478.75 1143.72 478.56 1133.73 478.18C1123.75 477.8 1114.42 477.14 1105.77 476.19C1097.11 475.24 1089.94 474 1084.23 472.48C1078.52 470.96 1073.39 468.87 1068.82 466.21C1064.26 463.55 1060.69 460.65 1058.12 457.51C1055.55 454.38 1053.41 450.34 1051.7 445.39C1049.99 440.45 1048.85 435.21 1048.28 429.7C1047.71 424.18 1047.42 417.63 1047.42 410.02H1116.17C1116.17 413.25 1116.69 415.73 1117.74 417.43C1118.78 419.14 1121.31 420.57 1125.3 421.71C1129.29 422.85 1134.86 423.61 1141.99 423.99C1149.12 424.37 1159.25 424.56 1172.37 424.56C1173.89 424.56 1176.17 424.56 1179.22 424.56C1200.9 424.56 1214.07 424.18 1218.73 423.42C1223.39 422.66 1225.72 420.19 1225.72 416.01C1225.72 413.54 1224.1 411.92 1220.87 411.16C1217.63 410.4 1208.7 409.55 1194.05 408.59C1183.4 407.83 1174.55 407.16 1167.52 406.6C1156.3 405.65 1147.69 404.89 1141.7 404.32C1135.71 403.75 1128.29 402.94 1119.45 401.89C1110.61 400.85 1103.9 399.8 1099.34 398.76C1094.78 397.71 1089.36 396.38 1083.08 394.76C1076.8 393.15 1072.1 391.29 1068.96 389.2C1065.82 387.11 1062.4 384.64 1058.69 381.79C1054.98 378.93 1052.32 375.71 1050.7 372.09C1049.08 368.48 1047.66 364.34 1046.42 359.68C1045.18 355.03 1044.57 349.94 1044.57 344.42C1044.57 337.76 1045.04 331.77 1046 326.45C1046.95 321.13 1048.28 316.37 1049.99 312.19C1051.7 308.01 1054.08 304.3 1057.12 301.06C1060.16 297.83 1063.4 295.02 1066.82 292.64C1070.24 290.27 1074.67 288.27 1080.09 286.65C1085.51 285.04 1090.93 283.75 1096.35 282.8C1101.77 281.85 1108.47 281.09 1116.46 280.52C1124.45 279.95 1132.29 279.57 1140 279.38C1147.73 279.14 1156.9 279.04 1167.55 279.04Z" fill="#FD6701"/>
</svg>