<svg viewBox="0 0 32 30" fill="none" xmlns="http://www.w3.org/2000/svg">
<path d="M17.6 20.5263H24V15.7895L32 22.8947L24 30V25.2632H17.6V20.5263ZM28.8 0H3.2C2.35131 0 1.53737 0.332706 0.937258 0.924926C0.337142 1.51715 0 2.32037 0 3.15789V22.1053C0 22.9428 0.337142 23.746 0.937258 24.3382C1.53737 24.9305 2.35131 25.2632 3.2 25.2632H14.96C14.5866 24.2512 14.3971 23.1822 14.4 22.1053C14.4023 20.071 15.068 18.0915 16.2988 16.4596C17.5295 14.8276 19.2598 13.63 21.2338 13.0438C23.2078 12.4577 25.3205 12.5141 27.2594 13.2048C29.1984 13.8955 30.8605 15.1837 32 16.8789V3.15789C32 2.32037 31.6629 1.51715 31.0627 0.924926C30.4626 0.332706 29.6487 0 28.8 0ZM28.8 6.31579L16 14.2105L3.2 6.31579V3.15789L16 11.0526L28.8 3.15789V6.31579Z" fill="#FC6701"/>
</svg>
