
<svg viewBox="0 0 19 17" xmlns="http://www.w3.org/2000/svg">
<mask id="path-1-inside-1_302_139" >
<path d="M17.7057 0.574689C17.4823 0.591211 17.263 0.644487 17.0564 0.732439H17.0536C16.8553 0.812374 15.9123 1.21559 14.4787 1.82678L9.34141 4.02608C5.6551 5.60357 2.03142 7.15702 2.03142 7.15702L2.07456 7.14004C2.07456 7.14004 1.82473 7.22351 1.56376 7.40531C1.40253 7.5096 1.26379 7.64605 1.15594 7.80641C1.02789 7.9974 0.924896 8.28956 0.963172 8.59162C1.02581 9.10236 1.3515 9.40866 1.58533 9.57773C1.82194 9.74892 2.04742 9.82885 2.04742 9.82885H2.05299L5.45119 10.9925C5.6036 11.4898 6.48673 14.4411 6.69898 15.1209C6.82425 15.5269 6.94604 15.7809 7.09845 15.9747C7.17221 16.0738 7.25851 16.1565 7.3622 16.223C7.41611 16.2549 7.47358 16.2801 7.5334 16.298L7.4986 16.2895C7.50904 16.2923 7.51739 16.3008 7.52505 16.3037C7.55288 16.3114 7.57167 16.3143 7.60717 16.3199C8.14512 16.4855 8.57729 16.1459 8.57729 16.1459L8.60164 16.1261L10.608 14.2692L13.9707 16.8915L14.0473 16.9248C14.7481 17.2374 15.4579 17.0634 15.833 16.7564C16.2109 16.4473 16.3577 16.0518 16.3577 16.0518L16.3821 15.9882L18.9807 2.45636C19.0544 2.12247 19.0732 1.8098 18.9918 1.50633C18.9078 1.1992 18.714 0.935042 18.4483 0.765686C18.2252 0.627825 17.9665 0.561283 17.7057 0.574689ZM17.6354 2.02485C17.6327 2.06942 17.641 2.06447 17.6215 2.15006V2.15784L15.0473 15.5489C15.0362 15.568 15.0174 15.6097 14.9659 15.6514C14.9116 15.6953 14.8684 15.7229 14.6423 15.6316L10.5294 12.4264L8.0449 14.7283L8.56685 11.3399L15.2867 4.97328C15.5637 4.71155 15.4711 4.65637 15.4711 4.65637C15.4906 4.33521 15.0529 4.56229 15.0529 4.56229L6.57929 9.89818L6.5765 9.88403L2.51508 8.494V8.49117L2.50465 8.48905C2.51177 8.48664 2.51874 8.48381 2.52552 8.48056L2.54779 8.46924L2.56937 8.46146C2.56937 8.46146 6.19583 6.90801 9.88214 5.33052C11.7277 4.54036 13.5872 3.74453 15.0174 3.13051C15.8655 2.76762 16.7146 2.40685 17.5645 2.0482C17.6215 2.02556 17.5944 2.02556 17.6354 2.02556V2.02485Z"/>
</mask>
<path d="M17.7057 0.574689C17.4823 0.591211 17.263 0.644487 17.0564 0.732439H17.0536C16.8553 0.812374 15.9123 1.21559 14.4787 1.82678L9.34141 4.02608C5.6551 5.60357 2.03142 7.15702 2.03142 7.15702L2.07456 7.14004C2.07456 7.14004 1.82473 7.22351 1.56376 7.40531C1.40253 7.5096 1.26379 7.64605 1.15594 7.80641C1.02789 7.9974 0.924896 8.28956 0.963172 8.59162C1.02581 9.10236 1.3515 9.40866 1.58533 9.57773C1.82194 9.74892 2.04742 9.82885 2.04742 9.82885H2.05299L5.45119 10.9925C5.6036 11.4898 6.48673 14.4411 6.69898 15.1209C6.82425 15.5269 6.94604 15.7809 7.09845 15.9747C7.17221 16.0738 7.25851 16.1565 7.3622 16.223C7.41611 16.2549 7.47358 16.2801 7.5334 16.298L7.4986 16.2895C7.50904 16.2923 7.51739 16.3008 7.52505 16.3037C7.55288 16.3114 7.57167 16.3143 7.60717 16.3199C8.14512 16.4855 8.57729 16.1459 8.57729 16.1459L8.60164 16.1261L10.608 14.2692L13.9707 16.8915L14.0473 16.9248C14.7481 17.2374 15.4579 17.0634 15.833 16.7564C16.2109 16.4473 16.3577 16.0518 16.3577 16.0518L16.3821 15.9882L18.9807 2.45636C19.0544 2.12247 19.0732 1.8098 18.9918 1.50633C18.9078 1.1992 18.714 0.935042 18.4483 0.765686C18.2252 0.627825 17.9665 0.561283 17.7057 0.574689ZM17.6354 2.02485C17.6327 2.06942 17.641 2.06447 17.6215 2.15006V2.15784L15.0473 15.5489C15.0362 15.568 15.0174 15.6097 14.9659 15.6514C14.9116 15.6953 14.8684 15.7229 14.6423 15.6316L10.5294 12.4264L8.0449 14.7283L8.56685 11.3399L15.2867 4.97328C15.5637 4.71155 15.4711 4.65637 15.4711 4.65637C15.4906 4.33521 15.0529 4.56229 15.0529 4.56229L6.57929 9.89818L6.5765 9.88403L2.51508 8.494V8.49117L2.50465 8.48905C2.51177 8.48664 2.51874 8.48381 2.52552 8.48056L2.54779 8.46924L2.56937 8.46146C2.56937 8.46146 6.19583 6.90801 9.88214 5.33052C11.7277 4.54036 13.5872 3.74453 15.0174 3.13051C15.8655 2.76762 16.7146 2.40685 17.5645 2.0482C17.6215 2.02556 17.5944 2.02556 17.6354 2.02556V2.02485Z"/>
</svg>