<svg width="34" height="34" viewBox="0 0 34 34" fill="none" xmlns="http://www.w3.org/2000/svg">
<path d="M9 10.8462V8.38462C9 6.42609 9.84286 4.54779 11.3431 3.1629C12.8434 1.77802 14.8783 1 17 1C19.1217 1 21.1566 1.77802 22.6569 3.1629C24.1571 4.54779 25 6.42609 25 8.38462V10.8462M2.33333 10.8462C1.97971 10.8462 1.64057 10.9758 1.39052 11.2066C1.14048 11.4375 1 11.7505 1 12.0769V28.6923C1 31.0185 3.14667 33 5.66667 33H28.3333C30.8533 33 33 31.1146 33 28.7885V12.0769C33 11.7505 32.8595 11.4375 32.6095 11.2066C32.3594 10.9758 32.0203 10.8462 31.6667 10.8462H2.33333Z" stroke="#fc6701" stroke-width="2" stroke-linecap="round" stroke-linejoin="round"/>
</svg>
