<svg width="32" height="30" viewBox="0 0 11 11" fill="#FC6701" xmlns="http://www.w3.org/2000/svg">
<path d="M9.56371 7.02684C9.04877 6.96326 8.53745 6.87313 8.0318 6.75681C7.90835 6.71553 7.77635 6.70683 7.64855 6.73155C7.52076 6.75627 7.4015 6.81357 7.30233 6.8979C7.17345 7.02927 6.80142 7.39661 6.41479 7.77611C5.02957 7.09485 3.9093 5.97321 3.22941 4.58684C3.60631 4.20004 3.95889 3.83027 4.10235 3.70134C4.18665 3.60212 4.24392 3.48281 4.26863 3.35495C4.29334 3.2271 4.28464 3.09503 4.24338 2.97153C4.12696 2.46486 4.03687 1.95249 3.97348 1.43649C3.96668 1.37078 3.94659 1.30715 3.91441 1.24946C3.88224 1.19177 3.83866 1.14125 3.78633 1.10096C3.734 1.06067 3.67402 1.03147 3.61005 1.01512C3.54607 0.998781 3.47944 0.995644 3.41421 1.0059H1.34249C1.25698 1.01363 1.17693 1.05129 1.11644 1.11225C1.05594 1.17321 1.01889 1.25357 1.0118 1.33918C0.878059 3.20993 1.92121 5.21204 2.13276 5.59641V5.61101L2.16194 5.66696C2.91922 6.98096 4.0096 8.07184 5.32301 8.82947L5.43 8.89029C5.91632 9.14815 7.84943 10.1212 9.65611 9.98743C9.74254 9.98144 9.82402 9.94485 9.88595 9.88423C9.94788 9.82361 9.98622 9.74291 9.9941 9.65659V7.58636C10.0044 7.5211 10.0012 7.45444 9.98488 7.39043C9.96855 7.32643 9.93936 7.26642 9.89909 7.21407C9.85882 7.16171 9.80831 7.11812 9.75065 7.08593C9.69299 7.05374 9.62939 7.03363 9.56371 7.02684Z" />
</svg>
