<svg viewBox="0 0 18 17" xmlns="http://www.w3.org/2000/svg">
<path d="M8.995 17C6.53637 17 6.24653 16.9877 5.28706 16.9482C4.53885 16.925 3.80032 16.7815 3.10328 16.524C2.50679 16.3051 1.96509 15.9716 1.51258 15.5447C1.06007 15.1177 0.706641 14.6068 0.474736 14.0441C0.212188 13.3844 0.0705786 12.6873 0.0559689 11.9828C-5.83089e-09 11.0798 0 10.7838 0 8.48303C0 6.15774 0.0129928 5.88628 0.0559689 4.98614C0.0708983 4.28254 0.212503 3.58645 0.474736 2.92759C0.706375 2.36426 1.06004 1.85267 1.51315 1.42552C1.96626 0.998358 2.50885 0.665013 3.10627 0.446773C3.80453 0.198128 4.54282 0.06423 5.28906 0.0508981C6.24353 -9.56986e-08 6.55736 0 8.995 0C11.4736 0 11.7585 0.0122532 12.7029 0.0508981C13.4505 0.0640939 14.1921 0.197937 14.8917 0.446773C15.489 0.665266 16.0314 0.9987 16.4845 1.42583C16.9376 1.85295 17.2914 2.3644 17.5233 2.92759C17.7901 3.59681 17.933 4.30373 17.944 5.01724C18 5.92022 18 6.21524 18 8.51508C18 10.8149 17.986 11.1165 17.944 12.0091C17.9291 12.7144 17.7872 13.4121 17.5243 14.0724C17.2918 14.6354 16.9377 15.1467 16.4845 15.5738C16.0313 16.0008 15.4889 16.3344 14.8917 16.5532C14.1921 16.8002 13.4535 16.934 12.7069 16.9482C11.7525 17 11.4396 17 8.995 17ZM8.96102 1.49207C6.51638 1.49207 6.26252 1.50338 5.30805 1.54391C4.73802 1.55094 4.17348 1.65009 3.63898 1.83705C3.24913 1.97798 2.89491 2.19438 2.59917 2.47232C2.30343 2.75025 2.07273 3.08354 1.92193 3.45071C1.72204 3.95969 1.6171 4.49789 1.6111 5.04081C1.55813 5.95415 1.55813 6.19356 1.55813 8.48303C1.55813 10.7452 1.56713 11.0195 1.6111 11.9271C1.6201 12.4644 1.72504 12.997 1.92193 13.5012C2.22776 14.243 2.85142 14.8293 3.63998 15.1139C4.17379 15.3021 4.73822 15.4013 5.30805 15.4071C6.27551 15.4599 6.53037 15.4599 8.96102 15.4599C11.4127 15.4599 11.6665 15.4485 12.613 15.4071C13.1831 15.4006 13.7477 15.3014 14.2821 15.1139C14.6698 14.9719 15.022 14.7554 15.3163 14.4781C15.6105 14.2007 15.8403 13.8687 15.9911 13.5031C16.191 12.9941 16.2959 12.455 16.3019 11.9121H16.3129C16.3559 11.011 16.3559 10.7706 16.3559 8.46795C16.3559 6.16528 16.3449 5.92304 16.3019 5.0229C16.2929 4.48607 16.1878 3.95454 15.9911 3.45071C15.8407 3.08457 15.611 2.75199 15.3168 2.47417C15.0225 2.19635 14.6701 1.97937 14.2821 1.83705C13.7478 1.64918 13.1831 1.55 12.613 1.54391C11.6465 1.49207 11.3937 1.49207 8.96102 1.49207ZM8.995 12.8367C8.08108 12.8373 7.18752 12.5822 6.42732 12.1038C5.66712 11.6254 5.07444 10.9451 4.72424 10.149C4.37404 9.35285 4.28205 8.47667 4.45991 7.63125C4.63777 6.78583 5.07749 6.00914 5.72345 5.39941C6.36941 4.78969 7.1926 4.37433 8.08889 4.20586C8.98518 4.03739 9.91432 4.12339 10.7588 4.45296C11.6032 4.78254 12.3251 5.3409 12.8331 6.05741C13.341 6.77393 13.6122 7.61642 13.6124 8.47832C13.6109 9.63313 13.124 10.7403 12.2585 11.5572C11.393 12.3741 10.2195 12.8342 8.995 12.8367ZM8.995 5.64876C8.40199 5.64876 7.82229 5.8146 7.32922 6.12531C6.83614 6.43602 6.45184 6.87764 6.2249 7.39433C5.99797 7.91102 5.93859 8.47957 6.05428 9.02809C6.16997 9.5766 6.45554 10.0804 6.87486 10.4759C7.29419 10.8714 7.82844 11.1407 8.41006 11.2498C8.99168 11.3589 9.59454 11.3029 10.1424 11.0889C10.6903 10.8749 11.1586 10.5124 11.488 10.0474C11.8175 9.5824 11.9933 9.0357 11.9933 8.47644C11.9915 7.72702 11.675 7.00881 11.1131 6.47889C10.5512 5.94898 9.78964 5.6505 8.995 5.64876ZM13.7923 4.97671C13.6509 4.97622 13.5109 4.94945 13.3803 4.89793C13.2498 4.84641 13.1313 4.77115 13.0317 4.67645C12.8304 4.48519 12.7179 4.22635 12.7189 3.95686C12.72 3.68738 12.8345 3.42934 13.0373 3.23949C13.2401 3.04965 13.5146 2.94356 13.8003 2.94456C14.0861 2.94556 14.3597 3.05357 14.561 3.24482C14.7623 3.43608 14.8748 3.69492 14.8737 3.9644C14.8727 4.23389 14.7582 4.49193 14.5553 4.68178C14.3525 4.87162 14.0781 4.97771 13.7923 4.97671Z"/>
</svg>