<svg viewBox="0 0 18 18" xmlns="http://www.w3.org/2000/svg">
<path d="M15.304 2.61562C13.6205 0.928125 11.3786 0 8.99598 0C4.07812 0 0.0763393 4.00179 0.0763393 8.91964C0.0763393 10.4906 0.486161 12.0254 1.26562 13.3795L0 18L4.72902 16.7585C6.0308 17.4696 7.49732 17.8433 8.99196 17.8433H8.99598C13.9098 17.8433 18 13.8415 18 8.92366C18 6.54107 16.9875 4.30312 15.304 2.61562ZM8.99598 16.3406C7.66205 16.3406 6.35625 15.983 5.2192 15.308L4.95 15.1473L2.14554 15.8826L2.89286 13.1464L2.71607 12.8652C1.97277 11.6839 1.58304 10.3219 1.58304 8.91964C1.58304 4.83348 4.90982 1.5067 9 1.5067C10.9808 1.5067 12.8411 2.27812 14.2393 3.68036C15.6375 5.08259 16.4973 6.94286 16.4933 8.92366C16.4933 13.0138 13.0821 16.3406 8.99598 16.3406ZM13.0621 10.7879C12.8411 10.6754 11.7442 10.1371 11.5393 10.0647C11.3344 9.98839 11.1857 9.95223 11.0371 10.1772C10.8884 10.4022 10.4625 10.9004 10.3299 11.0531C10.2013 11.2018 10.0687 11.2219 9.84777 11.1094C8.53795 10.4545 7.67812 9.94018 6.81429 8.45759C6.68712 8.23895 6.77179 8.15039 6.94516 7.96904C7.08402 7.82378 7.27979 7.619 7.4692 7.24018C7.54152 7.09152 7.50536 6.96295 7.44911 6.85045C7.40947 6.77118 7.17635 6.20321 6.97743 5.71857C6.89404 5.51538 6.81665 5.32683 6.76205 5.19509C6.60318 4.8138 6.44121 4.81408 6.31157 4.81431C6.29367 4.81434 6.27639 4.81437 6.25982 4.81339C6.13125 4.80536 5.98259 4.80536 5.83393 4.80536C5.68527 4.80536 5.4442 4.86161 5.23928 5.08259C5.22581 5.09739 5.21073 5.11355 5.19432 5.13113C4.96127 5.38084 4.45982 5.91814 4.45982 6.94286C4.45982 8.01126 5.21841 9.04536 5.35804 9.2357C5.36176 9.24078 5.36504 9.24525 5.36786 9.24911C5.3756 9.25933 5.38971 9.27951 5.41 9.30852C5.68472 9.70128 7.0928 11.7144 9.17679 12.6161C10.5911 13.2268 11.1455 13.279 11.8527 13.1746C12.2826 13.1103 13.1705 12.6362 13.3554 12.1138C13.5402 11.5915 13.5402 11.1455 13.4839 11.0531C13.4402 10.9691 13.3291 10.916 13.1647 10.8375C13.1325 10.8221 13.0982 10.8057 13.0621 10.7879Z"/>
<path d="M15.304 2.61562C13.6205 0.928125 11.3786 0 8.99598 0C4.07812 0 0.0763393 4.00179 0.0763393 8.91964C0.0763393 10.4906 0.486161 12.0254 1.26562 13.3795L0 18L4.72902 16.7585C6.0308 17.4696 7.49732 17.8433 8.99196 17.8433H8.99598C13.9098 17.8433 18 13.8415 18 8.92366C18 6.54107 16.9875 4.30312 15.304 2.61562ZM8.99598 16.3406C7.66205 16.3406 6.35625 15.983 5.2192 15.308L4.95 15.1473L2.14554 15.8826L2.89286 13.1464L2.71607 12.8652C1.97277 11.6839 1.58304 10.3219 1.58304 8.91964C1.58304 4.83348 4.90982 1.5067 9 1.5067C10.9808 1.5067 12.8411 2.27812 14.2393 3.68036C15.6375 5.08259 16.4973 6.94286 16.4933 8.92366C16.4933 13.0138 13.0821 16.3406 8.99598 16.3406ZM13.0621 10.7879C12.8411 10.6754 11.7442 10.1371 11.5393 10.0647C11.3344 9.98839 11.1857 9.95223 11.0371 10.1772C10.8884 10.4022 10.4625 10.9004 10.3299 11.0531C10.2013 11.2018 10.0687 11.2219 9.84777 11.1094C8.53795 10.4545 7.67812 9.94018 6.81429 8.45759C6.68712 8.23895 6.77179 8.15039 6.94516 7.96904C7.08402 7.82378 7.27979 7.619 7.4692 7.24018C7.54152 7.09152 7.50536 6.96295 7.44911 6.85045C7.40947 6.77118 7.17635 6.20321 6.97743 5.71857C6.89404 5.51538 6.81665 5.32683 6.76205 5.19509C6.60318 4.8138 6.44121 4.81408 6.31157 4.81431C6.29367 4.81434 6.27639 4.81437 6.25982 4.81339C6.13125 4.80536 5.98259 4.80536 5.83393 4.80536C5.68527 4.80536 5.4442 4.86161 5.23928 5.08259C5.22581 5.09739 5.21073 5.11355 5.19432 5.13113C4.96127 5.38084 4.45982 5.91814 4.45982 6.94286C4.45982 8.01126 5.21841 9.04536 5.35804 9.2357C5.36176 9.24078 5.36504 9.24525 5.36786 9.24911C5.3756 9.25933 5.38971 9.27951 5.41 9.30852C5.68472 9.70128 7.0928 11.7144 9.17679 12.6161C10.5911 13.2268 11.1455 13.279 11.8527 13.1746C12.2826 13.1103 13.1705 12.6362 13.3554 12.1138C13.5402 11.5915 13.5402 11.1455 13.4839 11.0531C13.4402 10.9691 13.3291 10.916 13.1647 10.8375C13.1325 10.8221 13.0982 10.8057 13.0621 10.7879Z"/>
</svg>